# xmcd
#
# Track frame offsets:
#	150
#	17210
#	34136
#	51200
#	63905
#	75477
#
# Disc length: 1262 seconds
# Revision: 0
# Processed by: cddbd v1.5.2PL0 Copyright (c) Steve Scherf et al.
# Submitted via: dBpowerAMP V12.0
#
DISCID=4304ec06
DTITLE=Dave Power - Handful Of Feathers
DYEAR=2015
DGENRE=Blues
TTITLE0=Journey Of Ours
TTITLE1=Incomplete
TTITLE2=Time For Change
TTITLE3=Yellow Moon
TTITLE4=Save Me
TTITLE5=I Dream Of You
EXTD=
EXTT0=
EXTT1=
EXTT2=
EXTT3=
EXTT4=
EXTT5=
PLAYORDER=
